<?xml version="1.0" encoding="UTF-8"?>
<svg xmlns="http://www.w3.org/2000/svg" xmlns:xlink="http://www.w3.org/1999/xlink" width="48pt" height="48pt" viewBox="0 0 48 48" version="1.1">
<g id="surface1073629">
<path style=" stroke:none;fill-rule:nonzero;fill:rgb(80%,80%,80%);fill-opacity:1;" d="M 6 11 C 6 8.789062 7.789062 7 10 7 L 38 7 C 40.207031 7 42 8.792969 42 11 L 42 39 C 42 41.207031 40.207031 43 38 43 L 10 43 C 7.789062 43 6 41.207031 6 39 Z M 6 11 "/>
<path style=" stroke:none;fill-rule:nonzero;fill:rgb(100%,100%,100%);fill-opacity:1;" d="M 34 33 L 31 33 L 31 21.082031 L 28 22.125 L 28 19.375 L 33.667969 17 L 34 17 Z M 17.125 33 L 16 33 L 16 30 L 17.125 30 C 19.089844 30 20.722656 28.527344 20.96875 26.628906 C 20.371094 26.867188 19.710938 27 19.003906 27 C 16.3125 27 14.109375 24.863281 14.003906 22.199219 L 14 22.199219 L 14.003906 22 C 14.097656 19.316406 16.140625 17.144531 18.734375 17.007812 C 20.121094 16.933594 21.4375 17.417969 22.441406 18.371094 C 23.433594 19.3125 24 20.636719 24 22 L 24 26.125 C 24 29.914062 20.917969 33 17.125 33 Z M 17.003906 22.097656 C 17.050781 23.152344 17.929688 24 19.003906 24 C 20.179688 24 21 23.179688 21 22 C 21 21.445312 20.777344 20.929688 20.375 20.550781 C 19.972656 20.167969 19.445312 19.976562 18.890625 20.003906 C 17.878906 20.054688 17.050781 20.984375 17.003906 22.097656 Z M 17.003906 22.097656 "/>
</g>
</svg>
